<svg width="58" height="51" viewBox="0 0 58 51" fill="none" xmlns="http://www.w3.org/2000/svg">
<path d="M4.61818 45.3484L1.48729 35.5644C1.20236 34.674 1.57229 33.705 2.3781 33.2309L8.87095 29.4116C9.27722 29.1726 9.58602 28.7979 9.74289 28.3534L12.3098 21.0806C12.4341 20.7283 12.6546 20.4179 12.9463 20.1845L19.7368 14.7522C19.911 14.6128 20.0607 14.4452 20.1797 14.2564L25.3056 6.11892C25.4341 5.91489 25.5965 5.73708 25.7914 5.59516C26.7208 4.91855 29.6888 2.83245 32 2.0416C34.7957 1.08495 36.8127 0.901869 39.5 1.04159C41.7981 1.16107 45.048 2.88519 46.4091 3.66428C46.8255 3.90263 47.1261 4.29362 47.2689 4.7517L52.4439 21.3616C52.4812 21.4813 52.5297 21.5973 52.5887 21.7079L56.2647 28.6004C56.4192 28.8901 56.5 29.2133 56.5 29.5416V37.0281C56.5 37.6652 56.1965 38.2642 55.6827 38.6409L49.1898 43.4024C49.0637 43.4949 48.9272 43.5722 48.7831 43.6329L39.7885 47.4201C39.5973 47.5006 39.3948 47.5509 39.1882 47.5691L22.73 49.0213C22.5772 49.0348 22.4233 49.0306 22.2714 49.0089L6.24019 46.7188C5.48166 46.6104 4.85171 46.0782 4.61818 45.3484Z" fill="#72E6A6" stroke="#72E6A6" stroke-width="2"/>
</svg>
