<svg width="98" height="52" viewBox="0 0 98 52" fill="none" xmlns="http://www.w3.org/2000/svg">
<path d="M88.5944 6.35453C91.6709 10.7511 90.0151 23.6244 70.837 19.3721C70.5439 19.3071 70.2281 19.2955 69.9466 19.3999C67.7943 20.1979 64.1791 23.4455 62.9517 25.1148C62.5963 25.598 62.8035 26.1614 63.2762 26.5307L67.7332 30.0126C67.9933 30.2158 68.2996 30.3514 68.6248 30.4075L90.8517 34.2379C91.0986 34.2805 91.3368 34.367 91.5453 34.506C94.8064 36.6812 96.4362 40.8346 96.8162 41.9145C96.8775 42.0887 96.9086 42.2718 96.9036 42.4564C96.6629 51.2959 75.5917 56.9627 61.8117 38.4666L59.1249 33.7957C58.8462 33.3113 58.3776 32.9655 57.8325 32.8422L51.1458 31.3297C50.8174 31.2555 50.4862 31.2623 50.1626 31.3551C45.1878 32.7815 3.43797 44.7248 3.41676 43.7846C3.39421 42.7848 37.5698 28.0106 39.558 27.4656C41.2037 27.0145 12.5396 19.7081 2.61606 17.2045C1.12794 16.829 1.1457 16.0558 2.67892 16.1245C11.6972 16.529 36.3153 20.2867 50.065 22.1673C50.3199 22.2022 50.5705 22.1862 50.8199 22.1227L52.1671 21.7796C53.9023 21.3377 58.5576 19.364 59.7365 18.0162C61.1558 16.3935 63.2133 13.9624 66.1791 10.3609C77.8622 -3.82648 85.4937 1.9234 88.5944 6.35453Z" fill="#72E6A6" stroke="#72E6A6" stroke-width="2"/>
</svg>
