<svg width="97" height="52" viewBox="0 0 97 52" fill="none" xmlns="http://www.w3.org/2000/svg">
<path d="M8.5 6.18673C5.52342 10.6515 7.46908 23.4843 26.5465 18.8006C26.838 18.729 27.1535 18.7103 27.4372 18.8083C29.607 19.5576 33.2945 22.7229 34.5592 24.364C34.9254 24.8392 34.731 25.407 34.2668 25.7869L29.8894 29.3684C29.6339 29.5774 29.3308 29.7199 29.0069 29.7833L6.87205 34.1139C6.62617 34.162 6.38992 34.2539 6.18468 34.3976C2.97343 36.6458 1.43769 40.8349 1.08212 41.923C1.02476 42.0986 0.997774 42.2823 1.00696 42.4668C1.44696 51.2986 22.6406 56.4889 36 37.6867L38.5808 32.9564C38.8485 32.4658 39.3092 32.1096 39.8514 31.9741L46.5023 30.3112C46.8289 30.2295 47.1602 30.2289 47.4858 30.3144C52.4915 31.6283 94.5 42.6272 94.5 41.6867C94.5 40.6866 60 26.6868 58 26.1867C56.3445 25.7729 84.8366 17.822 94.7012 15.0953C96.1804 14.6864 96.1452 13.9137 94.614 14.017C85.6071 14.6248 61.08 18.9365 47.3762 21.1267C47.1222 21.1673 46.8712 21.157 46.6205 21.0991L45.2659 20.7865C43.5211 20.3839 38.8225 18.5157 37.6136 17.1948C36.1581 15.6044 34.0462 13.2204 31 9.68669C19 -4.23368 11.5 1.68682 8.5 6.18673Z" stroke="#72E6A6" stroke-width="2"/>
</svg>
