<svg width="99" height="53" viewBox="0 0 99 53" fill="none" xmlns="http://www.w3.org/2000/svg">
<path d="M89.5944 6.35453C92.6709 10.7511 91.0151 23.6244 71.837 19.3721C71.5439 19.3071 71.2281 19.2955 70.9466 19.3999C68.7943 20.1979 65.1791 23.4455 63.9517 25.1148C63.5963 25.598 63.8035 26.1614 64.2762 26.5307L68.7332 30.0126C68.9933 30.2158 69.2996 30.3514 69.6248 30.4075L91.8517 34.2379C92.0986 34.2805 92.3368 34.367 92.5453 34.506C95.8064 36.6812 97.4362 40.8346 97.8162 41.9145C97.8775 42.0887 97.9086 42.2718 97.9036 42.4564C97.6629 51.2959 76.5917 56.9627 62.8117 38.4666L60.1249 33.7957C59.8462 33.3113 59.3776 32.9655 58.8325 32.8422L52.1458 31.3297C51.8174 31.2555 51.4862 31.2623 51.1626 31.3551C46.1878 32.7815 4.43797 44.7248 4.41676 43.7846C4.39421 42.7848 38.5698 28.0106 40.558 27.4656C42.2037 27.0145 13.5396 19.7081 3.61606 17.2045C2.12794 16.829 2.1457 16.0558 3.67892 16.1245C12.6972 16.529 37.3153 20.2867 51.065 22.1673C51.3199 22.2022 51.5705 22.1862 51.8199 22.1227L53.1671 21.7796C54.9023 21.3377 59.5576 19.364 60.7365 18.0162C62.1558 16.3935 64.2133 13.9624 67.1791 10.3609C78.8622 -3.82648 86.4937 1.9234 89.5944 6.35453Z" fill="#72E6A6" stroke="#72E6A6" stroke-width="2"/>
<path d="M73.6571 13.091C72.2679 9.81094 74.1022 7.77937 76.7213 6.67002C78.6673 5.30274 83.8207 5.4922 84.7899 7.78048C85.7591 10.0688 84.3564 13.2316 81.0867 14.9008C79.7788 15.5686 74.6264 15.3793 73.6571 13.091Z" fill="#141412"/>
<path d="M68.9002 38.7436C68.4789 35.4355 70.1611 35.3518 79.494 39.5484C84.2029 40.2611 94.066 38.8236 92.4025 41.984C91.8928 44.0607 84.8191 45.9416 78.985 44.9475C76.0361 44.4451 69.1615 40.7953 68.9002 38.7436Z" fill="#141412"/>
</svg>
